# xmcd CD database file
#
# Track frame offsets:
#	150
#	15890
#	26042
#	45060
#	56055
#	77197
#	88765
#	99365
#	113977
#	126270
#	147625
#	159950
#	170765
#	180767
#
# Disc length: 2711 seconds
#
# Revision: 0
# Processed by: cddbd v1.4PL0 Copyright (c) Steve Scherf et al.
# Submitted via: Feurio! 1.66 - http://www.feurio.com
#
DISCID=a90a950e
DTITLE=Lightnin' Hopkins - 28 Great Songs  CD 2
DYEAR=1900
DGENRE=
TTITLE0=Coffee For Mama
TTITLE1=Hear Me Talkin'
TTITLE2=Good Times
TTITLE3=Blues For My Cookie
TTITLE4=Goin' Back Home
TTITLE5=Lightnin's Boogie
TTITLE6=My Little Kewpie Doll
TTITLE7=Santa Fee Blues
TTITLE8=Shaggy Dog
TTITLE9=Shake It Baby
TTITLE10=Sittin' Down Thinkin'
TTITLE11=I'm Wit It
TTITLE12=Hopkins' Sky Hop
TTITLE13=I'll Be Gone
EXTD=
EXTT0=
EXTT1=
EXTT2=
EXTT3=
EXTT4=
EXTT5=
EXTT6=
EXTT7=
EXTT8=
EXTT9=
EXTT10=
EXTT11=
EXTT12=
EXTT13=
PLAYORDER=
